<?xml version="1.0" encoding="UTF-8"?>
<!--Generator: Apple Native CoreSVG 175.5-->
<!DOCTYPE svg
PUBLIC "-//W3C//DTD SVG 1.1//EN"
       "http://www.w3.org/Graphics/SVG/1.1/DTD/svg11.dtd">
<svg version="1.1" xmlns="http://www.w3.org/2000/svg" xmlns:xlink="http://www.w3.org/1999/xlink" width="6.96864" height="6.97303">
 <g>
  <rect height="6.97303" opacity="0" width="6.96864" x="0" y="0"/>
  <path d="M0.113714 6.85932C0.267523 7.00873 0.522406 7.00873 0.67182 6.85932L3.48432 4.04682L6.29682 6.85932C6.44623 7.00873 6.70551 7.01313 6.85493 6.85932C7.00434 6.70551 7.00434 6.45502 6.85493 6.30561L4.04243 3.48871L6.85493 0.676214C7.00434 0.5268 7.00873 0.271918 6.85493 0.122504C6.70112-0.0313051 6.44623-0.0313051 6.29682 0.122504L3.48432 2.935L0.67182 0.122504C0.522406-0.0313051 0.263129-0.0356996 0.113714 0.122504C-0.0356996 0.276312-0.0356996 0.5268 0.113714 0.676214L2.92621 3.48871L0.113714 6.30561C-0.0356996 6.45502-0.0400941 6.70991 0.113714 6.85932Z" fill="#ffffff"/>
 </g>
</svg>
